<svg xmlns="http://www.w3.org/2000/svg" viewBox="0 0 979 894" class="fill-current">
    <g transform="matrix(1.9140625,0,0,-1.9140625,-2.404201030731201,938.4254760742188)">
        <path d="m473.322739,101.048646q0,25 -1.5,96.5t-1.5,96.5q0,5 3,7q18,7 21,28q6,49 -35,72q-6,4 -30,9q-45,6 -91,6q-31,-2 -61,-6q-39,-5 -68,-13q-42,-13 -55,-51q-9,-29 -1,-51q5,-14 17,-14q3,-1 3,-6q0,-8 0.5,-23t0.5,-23q-1,-57 -1,-169q0,-15 12,-18l14,0q13,1 36.5,3.5t34.5,3.5q33,4 46,5q8,1 23.5,2.5t23.5,2.5q28,2 42,4q16,1 48,5q20,2 20,17l0,16l12,-1l3,0q0,-16 -4,-28q-2,-7 -11,-13.5t-20,-7.5q-12,-1 -33.5,-3.5t-31.5,-3.5q-44,-4 -66,-7q-21,-2 -65,-6q-8,-1 -23.5,-2.5t-23.5,-2.5q-16,-2 -23,-2q-30,3 -52,19q-12,10 -13,24q0,5 -6,5q-22,-4 -34,-2q-29,3 -47,20q-11,11 -11,25l0,203q0,6 -4,8q-14,10 -18,32q-4,38 7,60q18,38 57,50q25,8 73,16q49,9 122,5q19,0 55,-8q34,-9 44,-14q22,-13 28,-20q7,-7 23,-11q50,-8 79,-37q22,-22 22,-54q0,-27 -9,-42q-6,-9 -11,-12q-4,-3 -4,-8l0,-183q-15,0 -15,1zm-111,344q-1,0 -2.5,1t-2.5,2q-12,5 -24,6q-32,5 -72,7q-49,0 -92,-7q-37,-5 -62,-14q-35,-11 -49,-44q-9,-18 -5,-49q2,-19 17,-21q6,-1 6,-8l0,-107t-1,-107q0,-8 6,-13t14,-4q4,1 11,1.5t11,0.5q5,0 5,6l0,179q0,4 -3,7q-11,8 -15,19q-12,31 1,68q16,43 62,57q47,14 94,18q53,5 97,1q2,0 4,1z"/>
    </g>
</svg>